<svg width="26" height="26" viewBox="0 0 26 26" fill="none" xmlns="http://www.w3.org/2000/svg">
<path d="M6.58333 2V4.75M19.4167 2V4.75M2 21.25V7.5C2 6.77065 2.28973 6.07118 2.80546 5.55546C3.32118 5.03973 4.02065 4.75 4.75 4.75H21.25C21.9793 4.75 22.6788 5.03973 23.1945 5.55546C23.7103 6.07118 24 6.77065 24 7.5V21.25M2 21.25C2 21.9793 2.28973 22.6788 2.80546 23.1945C3.32118 23.7103 4.02065 24 4.75 24H21.25C21.9793 24 22.6788 23.7103 23.1945 23.1945C23.7103 22.6788 24 21.9793 24 21.25M2 21.25V12.0833C2 11.354 2.28973 10.6545 2.80546 10.1388C3.32118 9.62306 4.02065 9.33333 4.75 9.33333H21.25C21.9793 9.33333 22.6788 9.62306 23.1945 10.1388C23.7103 10.6545 24 11.354 24 12.0833V21.25" stroke="#F9F9FA" stroke-width="1.5" stroke-linecap="round" stroke-linejoin="round"/>
</svg>
