<svg width="34" height="34" viewBox="0 0 34 34" fill="none" xmlns="http://www.w3.org/2000/svg">
<rect width="34" height="34" rx="8" fill="#6B6DFF"/>
<path d="M11.75 8V10.25M22.25 8V10.25M8 23.75V12.5C8 11.9033 8.23705 11.331 8.65901 10.909C9.08097 10.4871 9.65326 10.25 10.25 10.25H23.75C24.3467 10.25 24.919 10.4871 25.341 10.909C25.7629 11.331 26 11.9033 26 12.5V23.75M8 23.75C8 24.3467 8.23705 24.919 8.65901 25.341C9.08097 25.7629 9.65326 26 10.25 26H23.75C24.3467 26 24.919 25.7629 25.341 25.341C25.7629 24.919 26 24.3467 26 23.75M8 23.75V16.25C8 15.6533 8.23705 15.081 8.65901 14.659C9.08097 14.2371 9.65326 14 10.25 14H23.75C24.3467 14 24.919 14.2371 25.341 14.659C25.7629 15.081 26 15.6533 26 16.25V23.75" stroke="white" stroke-width="1.5" stroke-linecap="round" stroke-linejoin="round"/>
</svg>
