<svg width="20" height="20" viewBox="0 0 20 20" fill="none" xmlns="http://www.w3.org/2000/svg">
<path d="M8.34 14.1754C7.652 14.1154 6.954 14.0854 6.25 14.0854H5.5C4.30653 14.0854 3.16193 13.6113 2.31802 12.7674C1.47411 11.9235 1 10.7789 1 9.58545C1 8.39198 1.47411 7.24738 2.31802 6.40347C3.16193 5.55956 4.30653 5.08545 5.5 5.08545H6.25C6.954 5.08545 7.652 5.05545 8.34 4.99545M8.34 14.1754C8.593 15.1374 8.924 16.0674 9.325 16.9584C9.572 17.5084 9.385 18.1684 8.862 18.4694L8.205 18.8494C7.654 19.1674 6.945 18.9664 6.678 18.3884C6.04429 17.0175 5.56146 15.5817 5.238 14.1064M8.34 14.1754C7.94698 12.6771 7.74868 11.1344 7.75 9.58545C7.75 7.99945 7.955 6.46145 8.34 4.99545M8.34 14.1754C11.4215 14.4396 14.4222 15.3005 17.175 16.7104M8.34 4.99545C11.4215 4.73137 14.4223 3.87038 17.175 2.46045M17.175 16.7104C17.057 17.0904 16.93 17.4644 16.795 17.8354M17.175 16.7104C17.719 14.957 18.0592 13.1467 18.189 11.3154M17.175 2.46045C17.0577 2.08234 16.931 1.70722 16.795 1.33545M17.175 2.46045C17.719 4.21389 18.0592 6.02415 18.189 7.85545M18.189 7.85545C18.684 8.26845 19 8.89045 19 9.58545C19 10.2804 18.684 10.9024 18.189 11.3154M18.189 7.85545C18.2711 9.00732 18.2711 10.1636 18.189 11.3154" stroke="#67697C" stroke-width="1.5" stroke-linecap="round" stroke-linejoin="round"/>
</svg>
