<svg width="19" height="19" viewBox="0 0 19 19" fill="none" xmlns="http://www.w3.org/2000/svg">
<path d="M3.32353 12.9491C2.46147 11.4947 2.15993 9.77562 2.47552 8.11462C2.79112 6.45362 3.70214 4.96494 5.03756 3.92804C6.37298 2.89114 8.04095 2.37733 9.72836 2.48308C11.4158 2.58883 13.0065 3.30686 14.2021 4.50238C15.3976 5.69789 16.1156 7.28867 16.2213 8.97607C16.3271 10.6635 15.8133 12.3315 14.7764 13.6669C13.7395 15.0023 12.2508 15.9133 10.5898 16.2289C8.92881 16.5445 7.20973 16.243 5.75531 15.3809V15.3809L3.35248 16.0612C3.25403 16.09 3.14965 16.0918 3.05028 16.0664C2.95091 16.041 2.86021 15.9893 2.78768 15.9167C2.71516 15.8442 2.66347 15.7535 2.63805 15.6541C2.61264 15.5548 2.61442 15.4504 2.64321 15.3519L3.32353 12.9491Z" stroke="#666666" stroke-width="1.15799" stroke-linecap="round" stroke-linejoin="round"/>
</svg>
