<svg width="34" height="34" viewBox="0 0 34 34" fill="none" xmlns="http://www.w3.org/2000/svg">
<rect width="34" height="34" rx="8" fill="#6B6DFF"/>
<path d="M16.25 16.25L16.291 16.23C16.4192 16.1659 16.5631 16.14 16.7057 16.1552C16.8482 16.1703 16.9834 16.2261 17.0952 16.3157C17.2071 16.4054 17.2909 16.5252 17.3368 16.661C17.3826 16.7968 17.3886 16.9429 17.354 17.082L16.646 19.918C16.6111 20.0572 16.6169 20.2034 16.6627 20.3394C16.7084 20.4754 16.7922 20.5954 16.9041 20.6852C17.016 20.775 17.1513 20.8308 17.294 20.846C17.4367 20.8612 17.5807 20.8352 17.709 20.771L17.75 20.75M26 17C26 18.1819 25.7672 19.3522 25.3149 20.4442C24.8626 21.5361 24.1997 22.5282 23.364 23.364C22.5282 24.1997 21.5361 24.8626 20.4442 25.3149C19.3522 25.7672 18.1819 26 17 26C15.8181 26 14.6478 25.7672 13.5558 25.3149C12.4639 24.8626 11.4718 24.1997 10.636 23.364C9.80031 22.5282 9.13738 21.5361 8.68508 20.4442C8.23279 19.3522 8 18.1819 8 17C8 14.6131 8.94821 12.3239 10.636 10.636C12.3239 8.94821 14.6131 8 17 8C19.3869 8 21.6761 8.94821 23.364 10.636C25.0518 12.3239 26 14.6131 26 17ZM17 13.25H17.008V13.258H17V13.25Z" stroke="#F9F9FA" stroke-width="1.5" stroke-linecap="round" stroke-linejoin="round"/>
</svg>
