<svg width="33" height="30" viewBox="0 0 33 30" fill="none" xmlns="http://www.w3.org/2000/svg">
<path d="M15 3C18.6733 3 22.2733 3.30934 25.7773 3.904C26.488 4.024 27 4.64534 27 5.36534V6.75734C27 7.1513 26.9224 7.54141 26.7716 7.90539C26.6209 8.26937 26.3999 8.60009 26.1213 8.87867L18.8787 16.1213C18.6001 16.3999 18.3791 16.7306 18.2284 17.0946C18.0776 17.4586 18 17.8487 18 18.2427V22.1453C18.0001 22.7026 17.845 23.2489 17.552 23.723C17.259 24.1971 16.8398 24.5802 16.3413 24.8293L12 27V18.2427C12 17.8487 11.9224 17.4586 11.7716 17.0946C11.6209 16.7306 11.3999 16.3999 11.1213 16.1213L3.87867 8.87867C3.60009 8.60009 3.37911 8.26937 3.22835 7.90539C3.07759 7.54141 3 7.1513 3 6.75734V5.36534C3 4.64534 3.512 4.024 4.22267 3.904C7.78342 3.30114 11.3886 2.99874 15 3Z" stroke="black" stroke-width="1.5" stroke-linecap="round" stroke-linejoin="round"/>
</svg>
