<svg width="25" height="25" viewBox="0 0 25 25" fill="none" xmlns="http://www.w3.org/2000/svg">
<path d="M1 13.9375C1 13.144 1.644 12.5 2.4375 12.5H5.3125C6.106 12.5 6.75 13.144 6.75 13.9375V22.5625C6.75 23.356 6.106 24 5.3125 24H2.4375C2.05625 24 1.69062 23.8486 1.42103 23.579C1.15145 23.3094 1 22.9437 1 22.5625V13.9375ZM9.625 8.1875C9.625 7.394 10.269 6.75 11.0625 6.75H13.9375C14.731 6.75 15.375 7.394 15.375 8.1875V22.5625C15.375 23.356 14.731 24 13.9375 24H11.0625C10.6813 24 10.3156 23.8486 10.046 23.579C9.77645 23.3094 9.625 22.9437 9.625 22.5625V8.1875ZM18.25 2.4375C18.25 1.644 18.894 1 19.6875 1H22.5625C23.356 1 24 1.644 24 2.4375V22.5625C24 23.356 23.356 24 22.5625 24H19.6875C19.3063 24 18.9406 23.8486 18.671 23.579C18.4014 23.3094 18.25 22.9437 18.25 22.5625V2.4375Z" stroke="black" stroke-width="1.5" stroke-linecap="round" stroke-linejoin="round"/>
</svg>
