<svg width="19" height="19" viewBox="0 0 19 19" fill="none" xmlns="http://www.w3.org/2000/svg">
<path d="M9.27259 15.772C9.27259 15.772 2.03516 11.719 2.03516 6.79753C2.03516 5.92751 2.33659 5.08436 2.88818 4.41153C3.43976 3.73871 4.20742 3.27777 5.06055 3.10715C5.91367 2.93652 6.79957 3.06675 7.5675 3.47567C8.33543 3.88459 8.93797 4.54695 9.27259 5.35004C9.60722 4.54695 10.2098 3.88459 10.9777 3.47567C11.7456 3.06675 12.6315 2.93652 13.4846 3.10715C14.3378 3.27777 15.1054 3.73871 15.657 4.41153C16.2086 5.08436 16.51 5.92751 16.51 6.79753C16.51 11.719 9.27259 15.772 9.27259 15.772Z" fill="#FF1F1F" stroke="#FF1F1F" stroke-width="1.15799" stroke-linecap="round" stroke-linejoin="round"/>
</svg>
