<svg width="14" height="26" viewBox="0 0 14 26" fill="none" xmlns="http://www.w3.org/2000/svg">
<path d="M7 20.7143C8.5913 20.7143 10.1174 19.9918 11.2426 18.7059C12.3679 17.4199 13 15.6758 13 13.8571V12.1429M7 20.7143C5.4087 20.7143 3.88258 19.9918 2.75736 18.7059C1.63214 17.4199 1 15.6758 1 13.8571V12.1429M7 20.7143V25M3.25 25H10.75M7 17.2857C6.20435 17.2857 5.44129 16.9245 4.87868 16.2815C4.31607 15.6385 4 14.7665 4 13.8571V4.42857C4 3.51926 4.31607 2.64719 4.87868 2.00421C5.44129 1.36122 6.20435 1 7 1C7.79565 1 8.55871 1.36122 9.12132 2.00421C9.68393 2.64719 10 3.51926 10 4.42857V13.8571C10 14.7665 9.68393 15.6385 9.12132 16.2815C8.55871 16.9245 7.79565 17.2857 7 17.2857Z" stroke="black" stroke-width="1.5" stroke-linecap="round" stroke-linejoin="round"/>
</svg>
