<svg width="34" height="34" viewBox="0 0 34 34" fill="none" xmlns="http://www.w3.org/2000/svg">
<rect width="34" height="34" rx="8" fill="#6B6DFF"/>
<path d="M14.34 21.0839C13.652 21.0227 12.954 20.9922 12.25 20.9922H11.5C10.3065 20.9922 9.16193 20.5091 8.31802 19.6491C7.47411 18.7892 7 17.6228 7 16.4067C7 15.1906 7.47411 14.0242 8.31802 13.1643C9.16193 12.3043 10.3065 11.8212 11.5 11.8212H12.25C12.954 11.8212 13.652 11.7907 14.34 11.7295M14.34 21.0839C14.593 22.0641 14.924 23.0118 15.325 23.9197C15.572 24.4802 15.385 25.1527 14.862 25.4594L14.205 25.8466C13.654 26.1707 12.945 25.9659 12.678 25.3769C12.0443 23.9799 11.5615 22.5169 11.238 21.0136M14.34 21.0839C13.947 19.5571 13.7487 17.9851 13.75 16.4067C13.75 14.7906 13.955 13.2234 14.34 11.7295M14.34 21.0839C17.4215 21.353 20.4222 22.2303 23.175 23.667M14.34 11.7295C17.4215 11.4604 20.4223 10.5831 23.175 9.14637M23.175 23.667C23.057 24.0542 22.93 24.4353 22.795 24.8134M23.175 23.667C23.719 21.8803 24.0592 20.0356 24.189 18.1696M23.175 9.14637C23.0577 8.76108 22.931 8.37883 22.795 8M23.175 9.14637C23.719 10.9331 24.0592 12.7778 24.189 14.6438M24.189 14.6438C24.684 15.0647 25 15.6985 25 16.4067C25 17.1149 24.684 17.7487 24.189 18.1696M24.189 14.6438C24.2711 15.8176 24.2711 16.9958 24.189 18.1696" stroke="#F9F9FA" stroke-width="1.5" stroke-linecap="round" stroke-linejoin="round"/>
</svg>
