<svg width="34" height="34" viewBox="0 0 34 34" fill="none" xmlns="http://www.w3.org/2000/svg">
<rect width="34" height="34" rx="8" fill="#6B6DFF"/>
<path d="M15.5 11C14.0166 11 12.5666 11.4399 11.3332 12.264C10.0999 13.0881 9.13856 14.2594 8.57091 15.6299C8.00325 17.0003 7.85472 18.5083 8.14411 19.9632C8.4335 21.418 9.14781 22.7544 10.1967 23.8033C11.2456 24.8522 12.582 25.5665 14.0368 25.8559C15.4917 26.1453 16.9997 25.9967 18.3701 25.4291C19.7406 24.8614 20.9119 23.9001 21.736 22.6668C22.5601 21.4334 23 19.9834 23 18.5H15.5V11Z" stroke="#F9F9FA" stroke-width="1.5" stroke-linecap="round" stroke-linejoin="round"/>
<path d="M19 15H26C26 13.1435 25.2625 11.363 23.9497 10.0503C22.637 8.7375 20.8565 8 19 8V15Z" stroke="#F9F9FA" stroke-width="1.5" stroke-linecap="round" stroke-linejoin="round"/>
</svg>
