<svg width="17" height="16" viewBox="0 0 17 16" fill="none" xmlns="http://www.w3.org/2000/svg">
<path d="M15.2919 0.736369L1.8013 4.53602C1.68646 4.56742 1.58409 4.63345 1.50814 4.72513C1.43218 4.81681 1.38634 4.92967 1.37684 5.04835C1.36735 5.16702 1.39467 5.28574 1.45508 5.38833C1.5155 5.49091 1.60606 5.57238 1.71445 5.62164L7.9097 8.5528C8.03105 8.609 8.12852 8.70646 8.18472 8.82782L11.1159 15.0231C11.1651 15.1315 11.2466 15.222 11.3492 15.2824C11.4518 15.3428 11.5705 15.3702 11.6892 15.3607C11.8078 15.3512 11.9207 15.3053 12.0124 15.2294C12.1041 15.1534 12.1701 15.0511 12.2015 14.9362L16.0012 1.44564C16.0299 1.34719 16.0317 1.24281 16.0063 1.14344C15.9809 1.04407 15.9292 0.95337 15.8567 0.880843C15.7841 0.808315 15.6934 0.756633 15.5941 0.731214C15.4947 0.705795 15.3903 0.707576 15.2919 0.736369V0.736369Z" stroke="#666666" stroke-width="1.15799" stroke-linecap="round" stroke-linejoin="round"/>
</svg>
