<svg width="34" height="34" viewBox="0 0 34 34" fill="none" xmlns="http://www.w3.org/2000/svg">
<rect width="34" height="34" rx="8" fill="#6B6DFF"/>
<path d="M22.0587 20.521C22.5265 20.2015 23.0752 20.0211 23.6413 20.0004C24.2074 19.9798 24.7678 20.1199 25.2576 20.4044C25.7474 20.689 26.1466 21.1064 26.4091 21.6084C26.6716 22.1104 26.7865 22.6764 26.7407 23.241C25.5409 23.6603 24.2665 23.8235 22.9997 23.72C22.9958 22.5866 22.6695 21.4768 22.0587 20.522C21.5166 19.6718 20.7689 18.972 19.8846 18.4875C19.0003 18.003 18.0081 17.7493 16.9997 17.75C15.9916 17.7495 14.9996 18.0032 14.1155 18.4877C13.2314 18.9723 12.4837 19.6719 11.9417 20.522M22.9987 23.719L22.9997 23.75C22.9997 23.975 22.9877 24.197 22.9627 24.416C21.1481 25.4571 19.0918 26.0033 16.9997 26C14.8297 26 12.7927 25.424 11.0367 24.416C11.011 24.1846 10.9987 23.9519 10.9997 23.719M10.9997 23.719C9.73337 23.8263 8.45965 23.6637 7.26074 23.242C7.21509 22.6776 7.33014 22.1117 7.59257 21.6099C7.855 21.1081 8.25411 20.6908 8.74374 20.4063C9.23338 20.1218 9.79354 19.9817 10.3595 20.0021C10.9254 20.0226 11.474 20.2028 11.9417 20.522M10.9997 23.719C11.0033 22.5857 11.3314 21.4769 11.9417 20.522M19.9997 11.75C19.9997 12.5456 19.6837 13.3087 19.1211 13.8713C18.5585 14.4339 17.7954 14.75 16.9997 14.75C16.2041 14.75 15.441 14.4339 14.8784 13.8713C14.3158 13.3087 13.9997 12.5456 13.9997 11.75C13.9997 10.9544 14.3158 10.1913 14.8784 9.62868C15.441 9.06607 16.2041 8.75 16.9997 8.75C17.7954 8.75 18.5585 9.06607 19.1211 9.62868C19.6837 10.1913 19.9997 10.9544 19.9997 11.75ZM25.9997 14.75C25.9997 15.0455 25.9415 15.3381 25.8285 15.611C25.7154 15.884 25.5497 16.1321 25.3407 16.341C25.1318 16.5499 24.8838 16.7157 24.6108 16.8287C24.3378 16.9418 24.0452 17 23.7497 17C23.4543 17 23.1617 16.9418 22.8887 16.8287C22.6157 16.7157 22.3677 16.5499 22.1588 16.341C21.9498 16.1321 21.7841 15.884 21.671 15.611C21.5579 15.3381 21.4997 15.0455 21.4997 14.75C21.4997 14.1533 21.7368 13.581 22.1588 13.159C22.5807 12.7371 23.153 12.5 23.7497 12.5C24.3465 12.5 24.9188 12.7371 25.3407 13.159C25.7627 13.581 25.9997 14.1533 25.9997 14.75ZM12.4997 14.75C12.4997 15.0455 12.4415 15.3381 12.3285 15.611C12.2154 15.884 12.0497 16.1321 11.8407 16.341C11.6318 16.5499 11.3838 16.7157 11.1108 16.8287C10.8378 16.9418 10.5452 17 10.2497 17C9.95427 17 9.66169 16.9418 9.3887 16.8287C9.11572 16.7157 8.86768 16.5499 8.65875 16.341C8.44982 16.1321 8.28409 15.884 8.17101 15.611C8.05794 15.3381 7.99974 15.0455 7.99974 14.75C7.99974 14.1533 8.23679 13.581 8.65875 13.159C9.08071 12.7371 9.653 12.5 10.2497 12.5C10.8465 12.5 11.4188 12.7371 11.8407 13.159C12.2627 13.581 12.4997 14.1533 12.4997 14.75Z" stroke="#F9F9FA" stroke-width="1.5" stroke-linecap="round" stroke-linejoin="round"/>
</svg>
