<svg width="30" height="26" viewBox="0 0 30 26" fill="none" xmlns="http://www.w3.org/2000/svg">
<path d="M1 21.8636C8.66138 21.8572 16.2895 22.8917 23.6829 24.9397C24.7268 25.2296 25.7692 24.4389 25.7692 23.335V21.8636M3.15385 1V2.09808C3.15385 2.38931 3.04039 2.66861 2.83842 2.87454C2.63646 3.08048 2.36254 3.19617 2.07692 3.19617H1M1 3.19617V2.64712C1 1.73791 1.72369 1 2.61538 1H26.8462M1 3.19617V16.3732M26.8462 1V2.09808C26.8462 2.70422 27.3286 3.19617 27.9231 3.19617H29M26.8462 1H27.3846C28.2763 1 29 1.73791 29 2.64712V16.9222C29 17.8314 28.2763 18.5693 27.3846 18.5693H26.8462M1 16.3732V16.9222C1 17.359 1.17019 17.778 1.47314 18.0869C1.77608 18.3958 2.18696 18.5693 2.61538 18.5693H3.15385M1 16.3732H2.07692C2.36254 16.3732 2.63646 16.4889 2.83842 16.6948C3.04039 16.9007 3.15385 17.18 3.15385 17.4712V18.5693M26.8462 18.5693V17.4712C26.8462 17.18 26.9596 16.9007 27.1616 16.6948C27.3635 16.4889 27.6375 16.3732 27.9231 16.3732H29M26.8462 18.5693H3.15385M19.3077 9.78466C19.3077 10.9496 18.8538 12.0668 18.046 12.8905C17.2382 13.7142 16.1425 14.177 15 14.177C13.8575 14.177 12.7619 13.7142 11.954 12.8905C11.1462 12.0668 10.6923 10.9496 10.6923 9.78466C10.6923 8.61974 11.1462 7.50254 11.954 6.67881C12.7619 5.85509 13.8575 5.39233 15 5.39233C16.1425 5.39233 17.2382 5.85509 18.046 6.67881C18.8538 7.50254 19.3077 8.61974 19.3077 9.78466ZM23.6154 9.78466H23.6269V9.79638H23.6154V9.78466ZM6.38462 9.78466H6.3961V9.79638H6.38462V9.78466Z" stroke="#F9F9FA" stroke-width="1.5" stroke-linecap="round" stroke-linejoin="round"/>
</svg>
